<?xml version="1.0" encoding="utf-8"?>
<!-- Generator: Adobe Illustrator 19.2.1, SVG Export Plug-In . SVG Version: 6.00 Build 0)  -->
<svg version="1.1" id="Layer_1" xmlns="http://www.w3.org/2000/svg" xmlns:xlink="http://www.w3.org/1999/xlink" x="0px" y="0px"
	 width="40px" height="47px" viewBox="0 0 40 47" style="enable-background:new 0 0 40 47;" xml:space="preserve">
<style type="text/css">
	.st0{fill:#FFFFFF;}
	.st1{fill:none;}
	.st2{opacity:0.5;fill-rule:evenodd;clip-rule:evenodd;fill:#FFFFFF;}
	.st3{fill-rule:evenodd;clip-rule:evenodd;fill:#FFFFFF;}
</style>
<g>
	<path class="st0" d="M12.655,24.503c1.312,2.74,4.109,4.639,7.345,4.639c4.49,0,8.143-3.653,8.143-8.143
		c0-4.477-3.632-8.12-8.104-8.141v0.001c-0.006,0-0.012-0.002-0.019-0.002c-0.999,0-1.81,0.81-1.81,1.81
		c0,0.999,0.81,1.81,1.81,1.81c0.006,0,0.012-0.002,0.019-0.002v0.004c2.476,0.021,4.485,2.039,4.485,4.52
		c0,2.494-2.03,4.524-4.524,4.524c-1.782,0-3.303-1.048-4.038-2.551c-0.266-0.679-0.923-1.162-1.697-1.162
		c-1.008,0-1.825,0.817-1.825,1.825c0,0.113,0.011,0.223,0.032,0.33C12.509,24.155,12.655,24.503,12.655,24.503z M20,34.571
		c7.483,0,13.571-6.088,13.571-13.572c0-7.471-6.068-13.549-13.533-13.57v0.001c-0.006,0-0.012-0.002-0.019-0.002
		c-0.999,0-1.81,0.81-1.81,1.81c0,0.999,0.81,1.81,1.81,1.81c0.006,0,0.012-0.002,0.019-0.002v0.003
		c5.47,0.021,9.914,4.476,9.914,9.951c0,5.488-4.465,9.953-9.952,9.953s-9.952-4.465-9.952-9.953c0-0.105,0.012-0.206,0.016-0.31
		c0,0,0.007-0.077,0.007-0.117c0-0.999-0.81-1.81-1.81-1.81c-0.967,0-1.757,0.759-1.807,1.714c-0.002,0.032-0.025,0.418-0.025,0.523
		C6.429,28.483,12.517,34.571,20,34.571z M20.038,2v0.001C20.032,2.002,20.026,2,20.02,2c-0.999,0-1.81,0.81-1.81,1.81
		c0,0.999,0.81,1.81,1.81,1.81c0.006,0,0.012-0.002,0.019-0.002V5.62c8.463,0.021,15.343,6.911,15.343,15.38
		c0,8.482-6.9,15.382-15.381,15.382s-15.381-6.9-15.381-15.382c0-2.357,0.545-4.582,1.5-6.577c0,0,0.044-0.117,0.067-0.175
		c0.085-0.206,0.135-0.43,0.135-0.668c0-1.001-0.812-1.813-1.813-1.813c-0.686,0-1.279,0.384-1.585,0.947
		c-0.045,0.083-0.13,0.252-0.13,0.252C1.648,15.406,1,18.125,1,20.999C1,31.493,9.507,40,20,40s19-8.507,19-19.001
		C39,10.518,30.514,2.022,20.038,2z"/>
	<rect class="st1" width="40" height="47"/>
</g>
</svg>
