<?xml version="1.0" encoding="utf-8"?>
<!-- Generator: Adobe Illustrator 19.2.1, SVG Export Plug-In . SVG Version: 6.00 Build 0)  -->
<svg version="1.1" id="Layer_1" xmlns="http://www.w3.org/2000/svg" xmlns:xlink="http://www.w3.org/1999/xlink" x="0px" y="0px"
	 width="44px" height="47px" viewBox="0 0 44 47" style="enable-background:new 0 0 44 47;" xml:space="preserve">
<style type="text/css">
	.st0{fill:none;}
	.st1{fill:#FFFFFF;}
	.st2{fill-rule:evenodd;clip-rule:evenodd;fill:#FFFFFF;}
</style>
<rect class="st0" width="44" height="47"/>
<path class="st1" d="M18.097,20.383c2.987-2.153,7.005-4.803,8.656-5.883c-1.685-0.081-3.422-0.134-5.185-0.134
	c-10.86,0-19.372,1.66-19.996,1.848c-0.232,0.07-0.505,0.262-0.576,0.492c-0.095,0.305,0.175,0.707,0.344,0.92
	c0.895,1.125,1.98,2.141,3.13,3.218c0.319,0.299,0.641,0.6,0.962,0.907c1.148,1.097,3.839,3.426,4.939,4.373
	C11.938,24.935,15.271,22.422,18.097,20.383z M27.421,12.465c-0.447-1.313-1.338-3.825-2.148-5.456l-0.795-1.602
	c-0.858-1.732-1.599-3.227-2.063-4.104C22.312,1.11,22.159,1.008,21.958,1c-0.201-0.008-0.348,0.083-0.379,0.131
	c-0.463,0.732-1.696,2.931-3.045,6.011c-0.962,2.196-1.705,4.2-2.09,5.281c1.646-0.074,3.353-0.121,5.111-0.121
	C23.526,12.301,25.5,12.364,27.421,12.465z M28.722,16.347c-0.645,2.62-2.147,8.69-2.987,11.759
	c-0.776,2.837-1.914,6.029-2.541,7.726c0.901,0.501,3.269,1.819,5.641,3.145c2.417,1.351,4.249,2.302,5.446,2.829
	c0.24,0.106,0.499,0.11,0.643,0.011c0.183-0.126,0.198-0.446,0.191-0.627c-0.051-1.293-0.992-7.926-2.347-14.006
	C31.858,23.101,29.846,18.649,28.722,16.347z M26.484,17.07c-1.959,1.295-4.908,3.27-7.217,4.935
	c-3.125,2.254-6.895,5.109-8.155,6.066c-0.26,1.256-0.971,4.768-1.447,7.81c-0.515,3.3-0.735,5.022-0.735,5.759
	c0,0.037,0.01,0.36,0.362,0.36c0.124,0,0.338-0.036,0.659-0.21c0.565-0.306,1.074-0.573,1.623-0.861
	c0.848-0.445,1.809-0.948,3.228-1.73c1.942-1.069,5.279-2.932,6.311-3.509c0.538-1.438,1.857-5.055,2.693-8.111
	C24.529,24.94,25.752,20.035,26.484,17.07z M42.911,16.724c-0.024-0.062-0.098-0.25-0.503-0.385
	c-0.817-0.274-5.768-1.134-12.155-1.623c0.96,1.907,2.966,6.145,4.182,10.467c1.146-0.96,3.091-2.596,4.184-3.545l0.091-0.079
	c1.37-1.19,3.663-3.182,4.032-3.862C42.936,17.339,43.002,16.957,42.911,16.724z"/>
</svg>
