<?xml version="1.0" encoding="utf-8"?>
<!-- Generator: Adobe Illustrator 19.2.1, SVG Export Plug-In . SVG Version: 6.00 Build 0)  -->
<svg version="1.1" id="Layer_1" xmlns="http://www.w3.org/2000/svg" xmlns:xlink="http://www.w3.org/1999/xlink" x="0px" y="0px"
	 width="40px" height="47px" viewBox="0 0 40 47" style="enable-background:new 0 0 40 47;" xml:space="preserve">
<style type="text/css">
	.st0{fill:none;}
	.st1{fill:#FFFFFF;}
	.st2{fill-rule:evenodd;clip-rule:evenodd;fill:#FFFFFF;}
</style>
<rect class="st0" width="40" height="47"/>
<path class="st1" d="M19.999,1.998c-10.494,0-19.001,8.507-19.001,19.001C0.998,31.493,9.505,40,19.999,40S39,31.493,39,20.999
	C39,10.505,30.493,1.998,19.999,1.998z M23.56,8.18c1.249,0,2.262,1.013,2.262,2.262c0,1.249-1.013,2.262-2.262,2.262
	c-1.249,0-2.262-1.013-2.262-2.262C21.298,9.193,22.311,8.18,23.56,8.18z M30.419,18.129c-0.368,0.693-2.7,1.951-3.973,2.738
	c-0.373,0.231-1.088,0.584-1.64,0.271c-0.626-0.29-1.054-1.717-1.222-2.439c-0.034-0.017-0.068-0.034-0.102-0.051
	c-0.271,1.067-0.543,2.134-0.814,3.201c0.872,1.12,4.228,2.716,4.479,4.014c0.195,1.005-0.794,1.343-1.324,1.677
	c-1.493,0.965-2.986,1.931-4.479,2.896c-0.492,0.321-1.294,0.834-1.985,0.356c-0.517-0.357-0.504-1.362-0.051-1.778
	c1.629-0.999,3.258-1.999,4.887-2.998c0-0.034,0-0.068,0-0.102c-0.521-0.616-3.97-2.693-3.97-2.693s-1.407,4.031-1.883,5.131
	c-1.154,1.236-2.308,2.473-3.461,3.709c-0.578,0.579-1.642,2.401-2.851,1.473c-1.306-1.002,1.168-2.936,1.629-3.506
	c0.848-0.864,1.697-1.727,2.545-2.591c0.339-1.135,2.916-9.083,3.309-11.787l-1.873,0.284c-0.347,1.75-0.702,3.493-1.089,4.569
	c-0.283,0.707-1.456,0.496-1.466-0.129c-0.017-1.06,0.71-4.358,0.872-5.088c0.398-1.786,0.937-1.28,6.051-1.974
	c2.071-0.021,2.258,1.746,2.8,3.302c0.344,0.96,0.616,1.831,0.905,2.559l3.677-2.153C30.065,16.687,30.8,17.45,30.419,18.129z"/>
</svg>
