<?xml version="1.0" encoding="utf-8"?>
<!-- Generator: Adobe Illustrator 19.2.1, SVG Export Plug-In . SVG Version: 6.00 Build 0)  -->
<svg version="1.1" id="Layer_1" xmlns="http://www.w3.org/2000/svg" xmlns:xlink="http://www.w3.org/1999/xlink" x="0px" y="0px"
	 width="40px" height="47px" viewBox="0 0 40 47" style="enable-background:new 0 0 40 47;" xml:space="preserve">
<style type="text/css">
	.st0{fill:none;}
	.st1{fill:#FFFFFF;}
	.st2{fill-rule:evenodd;clip-rule:evenodd;fill:#FFFFFF;}
</style>
<rect class="st0" width="40" height="47"/>
<path class="st1" d="M20,2C9.506,2,1,10.507,1,21s8.506,19,19,19c10.493,0,19-8.507,19-19S30.493,2,20,2z M28.702,13.013
	l-9.746,21.725c-0.082,0.183-0.262,0.295-0.456,0.295c-0.035,0-0.07-0.003-0.104-0.011C18.165,34.973,18,34.769,18,34.533V23H5.77
	c-0.237,0-0.442-0.167-0.49-0.399s0.074-0.466,0.292-0.56l22.476-9.692c0.188-0.083,0.409-0.04,0.554,0.108
	C28.747,12.604,28.787,12.825,28.702,13.013z"/>
</svg>
