<?xml version="1.0" encoding="utf-8"?>
<!-- Generator: Adobe Illustrator 19.2.1, SVG Export Plug-In . SVG Version: 6.00 Build 0)  -->
<svg version="1.1" id="Layer_1" xmlns="http://www.w3.org/2000/svg" xmlns:xlink="http://www.w3.org/1999/xlink" x="0px" y="0px"
	 width="40px" height="47px" viewBox="0 0 40 47" style="enable-background:new 0 0 40 47;" xml:space="preserve">
<style type="text/css">
	.st0{fill:none;}
	.st1{fill:#FFFFFF;}
	.st2{fill-rule:evenodd;clip-rule:evenodd;fill:#FFFFFF;}
</style>
<path class="st1" d="M20,2C9.507,2,1,10.506,1,21c0,10.494,8.507,19,19,19s19-8.506,19-19C39,10.506,30.494,2,20,2z M32.233,29.692
	c-1.514,0-2.953-0.653-4.078-1.824c-1.125,1.171-2.565,1.824-4.078,1.824c-1.513,0-2.953-0.653-4.078-1.824
	c-1.125,1.17-2.565,1.824-4.078,1.824c-1.513,0-2.953-0.654-4.078-1.824c-1.125,1.171-2.565,1.824-4.077,1.824
	c-0.483,0-0.875-0.392-0.875-0.875c0-0.483,0.392-0.875,0.875-0.875c1.275,0,2.499-0.712,3.358-1.953
	c0.164-0.236,0.433-0.377,0.72-0.377c0,0,0,0,0,0c0.287,0,0.556,0.141,0.719,0.377c0.857,1.241,2.081,1.953,3.357,1.953
	c1.276,0,2.5-0.712,3.358-1.953c0.164-0.236,0.433-0.377,0.72-0.377c0.288,0,0.556,0.141,0.72,0.377
	c0.858,1.241,2.082,1.953,3.358,1.953s2.5-0.712,3.358-1.953c0.164-0.236,0.433-0.377,0.72-0.377c0.288,0,0.557,0.141,0.72,0.377
	c0.857,1.241,2.082,1.953,3.358,1.953c0.483,0,0.875,0.392,0.875,0.875C33.108,29.301,32.716,29.692,32.233,29.692z M32.233,23.04
	c-1.514,0-2.954-0.654-4.078-1.825c-1.125,1.171-2.565,1.825-4.078,1.825c-1.513,0-2.953-0.654-4.078-1.825
	c-1.125,1.171-2.565,1.825-4.078,1.825c-1.513,0-2.953-0.654-4.078-1.825C10.72,22.386,9.28,23.04,7.768,23.04
	c-0.483,0-0.875-0.392-0.875-0.875c0-0.483,0.392-0.875,0.875-0.875c1.275,0,2.5-0.712,3.358-1.953
	c0.164-0.236,0.433-0.377,0.72-0.377c0,0,0,0,0,0c0.287,0,0.556,0.141,0.719,0.378c0.857,1.241,2.081,1.953,3.357,1.953
	c1.276,0,2.5-0.712,3.358-1.953c0.164-0.236,0.433-0.377,0.72-0.377c0.288,0,0.557,0.141,0.72,0.377
	c0.858,1.241,2.082,1.953,3.358,1.953c1.276,0,2.5-0.712,3.358-1.953c0.164-0.236,0.433-0.377,0.72-0.377
	c0.288,0,0.557,0.141,0.72,0.378c0.857,1.241,2.082,1.953,3.358,1.953c0.483,0,0.875,0.392,0.875,0.875
	C33.108,22.649,32.716,23.04,32.233,23.04z M32.233,16.388c-1.514,0-2.954-0.654-4.078-1.825c-1.125,1.171-2.565,1.825-4.078,1.825
	c-1.513,0-2.953-0.654-4.078-1.825c-1.125,1.171-2.565,1.825-4.078,1.825c-1.513,0-2.953-0.654-4.078-1.825
	c-1.125,1.171-2.565,1.825-4.077,1.825c-0.483,0-0.875-0.392-0.875-0.875s0.392-0.875,0.875-0.875c1.275,0,2.5-0.712,3.358-1.953
	c0.164-0.236,0.433-0.377,0.72-0.377c0,0,0,0,0,0c0.287,0,0.556,0.141,0.719,0.378c0.857,1.241,2.081,1.953,3.357,1.953
	c1.276,0,2.5-0.712,3.358-1.953c0.164-0.236,0.433-0.377,0.72-0.377c0.288,0,0.557,0.141,0.72,0.377
	c0.858,1.241,2.082,1.953,3.358,1.953c1.276,0,2.5-0.712,3.358-1.953c0.164-0.236,0.433-0.377,0.72-0.377
	c0.288,0,0.557,0.141,0.72,0.378c0.857,1.241,2.082,1.953,3.358,1.953c0.483,0,0.875,0.392,0.875,0.875S32.716,16.388,32.233,16.388
	z"/>
</svg>
