<?xml version="1.0" encoding="utf-8"?>
<!-- Generator: Adobe Illustrator 19.2.1, SVG Export Plug-In . SVG Version: 6.00 Build 0)  -->
<svg version="1.1" id="Layer_1" xmlns="http://www.w3.org/2000/svg" xmlns:xlink="http://www.w3.org/1999/xlink" x="0px" y="0px"
	 width="40px" height="47px" viewBox="0 0 40 47" style="enable-background:new 0 0 40 47;" xml:space="preserve">
<style type="text/css">
	.st0{fill:none;}
	.st1{fill:#FFFFFF;}
	.st2{fill-rule:evenodd;clip-rule:evenodd;fill:#FFFFFF;}
</style>
<rect class="st0" width="40" height="47"/>
<path class="st1" d="M21.36,27.034c1.572,1.1,3.351,2.094,6.151,2.306c1.898,0.143,3.613-0.512,5.155-1.214
	c-1.482-0.95-3.733-2.246-6.537-2.246C24.455,25.88,22.843,26.357,21.36,27.034z M11.303,23.733l-0.162,0.123
	c-1.847,1.407-3.503,2.494-4.88,3.325c0.549-0.042,1.091-0.053,1.612-0.016c2.715,0.197,4.748,1.158,6.417,2.202
	c0.184-0.126,0.369-0.253,0.546-0.38l0.415-0.299c0.998-0.72,2.198-1.584,3.555-2.369c-0.065-0.045-0.129-0.095-0.194-0.138
	l-0.643-0.434c-1.285-0.873-3.119-2.118-5.132-3.163C12.335,22.952,11.829,23.333,11.303,23.733z M34.621,27.231
	c0.478-0.205,0.945-0.379,1.401-0.498c-1.001-0.815-2.188-1.868-3.705-3.227c-2.303-2.063-5.562-4.431-10.353-4.431
	c-3.466,0-5.858,1.198-8.312,2.918c1.899,1.02,3.604,2.175,4.825,3.004l0.637,0.431c0.192,0.128,0.382,0.271,0.572,0.407
	c1.909-0.996,4.088-1.766,6.444-1.766c3.634,0,6.456,1.84,7.972,2.828C34.294,27.024,34.467,27.136,34.621,27.231z M12.559,30.448
	c-1.333-0.739-2.874-1.336-4.817-1.477c-1.457-0.108-3.154,0.215-4.69,0.65c0.347,0.681,0.721,1.347,1.145,1.978
	c0.771,0.193,1.644,0.348,2.576,0.395C8.941,32.099,10.86,31.398,12.559,30.448z M10.206,22.293
	c0.258-0.197,0.513-0.391,0.768-0.583c-1.496-0.625-3.026-1.062-4.457-1.094c-2.058-0.047-4.016,0.332-5.525,0.749
	c0.039,2.113,0.429,4.136,1.104,6.027c0.938-0.443,4.054-2.011,7.948-4.976L10.206,22.293z M31.687,33.359
	c-1.529-0.562-2.899-0.701-4.469-0.667c-1.496,0.03-3.003,0.626-4.744,1.708c1.042,0.36,2.184,0.6,3.451,0.6
	C27.933,35,29.932,34.284,31.687,33.359z M35.652,27.794c0.5,0.246,1.106,0.512,1.776,0.76c0.085-0.196,0.157-0.398,0.236-0.597
	C37.45,27.815,37.23,27.662,37,27.493C36.577,27.516,36.131,27.621,35.652,27.794z M19.983,2C9.684,2,1.318,10.197,1.004,20.42
	c1.53-0.403,3.469-0.75,5.533-0.709c1.714,0.038,3.534,0.602,5.273,1.376c2.924-2.15,5.787-3.822,10.153-3.822
	c5.406,0,9.018,2.615,11.561,4.893c2.083,1.865,3.576,3.182,4.74,4.01c0.463-1.643,0.728-3.369,0.728-5.16
	C38.992,10.511,30.482,2,19.983,2z M20.657,35.629c-0.827,0.606-1.71,1.299-2.674,2.082c-0.894,0.726-1.737,1.292-2.517,1.745
	c1.45,0.354,2.958,0.563,4.517,0.563c5.248,0,10-2.127,13.439-5.566c-2.166,1.27-4.799,2.359-7.498,2.359
	C23.909,36.811,22.16,36.31,20.657,35.629z M19.746,35.182c-1.261-0.67-2.323-1.434-3.193-2.062
	c-0.293-0.212-0.568-0.41-0.826-0.587c-0.225-0.155-0.456-0.317-0.692-0.484c-0.243-0.171-0.49-0.345-0.743-0.519
	c-2.002,1.25-4.329,2.285-7.062,2.285c-0.18,0-0.363-0.005-0.547-0.014c-0.268-0.013-0.53-0.037-0.789-0.064
	c2.223,2.459,5.066,4.342,8.299,5.375c0.951-0.476,2.041-1.148,3.219-2.105C18.251,36.327,19.015,35.731,19.746,35.182z
	 M33.569,28.707c-1.619,0.758-3.426,1.559-5.513,1.559c-0.202,0-0.406-0.008-0.613-0.023c-3.269-0.248-5.289-1.514-7.006-2.752
	c-1.587,0.837-2.996,1.85-4.126,2.666l-0.406,0.293c0.057,0.04,0.117,0.081,0.173,0.121c0.23,0.162,0.455,0.32,0.674,0.471
	c0.269,0.185,0.556,0.392,0.861,0.612c1.048,0.756,2.311,1.653,3.813,2.332c2.136-1.42,3.908-2.16,5.775-2.197
	c1.922-0.041,3.566,0.156,5.502,1.004c1.569-0.943,2.861-1.983,3.678-2.699c-1.165-0.459-2.125-0.957-2.705-1.315
	C33.645,28.757,33.602,28.728,33.569,28.707z"/>
</svg>
