<?xml version="1.0" encoding="utf-8"?>
<!-- Generator: Adobe Illustrator 19.2.1, SVG Export Plug-In . SVG Version: 6.00 Build 0)  -->
<svg version="1.1" id="Layer_1" xmlns="http://www.w3.org/2000/svg" xmlns:xlink="http://www.w3.org/1999/xlink" x="0px" y="0px"
	 width="40px" height="47px" viewBox="0 0 40 47" style="enable-background:new 0 0 40 47;" xml:space="preserve">
<style type="text/css">
	.st0{fill:#FFFFFF;}
	.st1{fill:none;}
	.st2{opacity:0.5;fill-rule:evenodd;clip-rule:evenodd;fill:#FFFFFF;}
	.st3{fill-rule:evenodd;clip-rule:evenodd;fill:#FFFFFF;}
</style>
<g>
	<path class="st0" d="M20.016,2c-10.494,0-19,8.507-19,19s8.507,19,19,19c10.493,0,19-8.507,19-19S30.51,2,20.016,2z M33.021,11.703
		l-7.737,6.772c-0.451,0.387-1.086,0.416-1.569,0.124l-1.976,1.72c0.097,0.222,0.153,0.467,0.153,0.725
		c0,0.847-0.585,1.555-1.368,1.751v14.878c0,0.25-0.201,0.452-0.45,0.452s-0.45-0.202-0.45-0.452v-14.89
		c-0.764-0.209-1.331-0.906-1.331-1.74c0-0.226,0.046-0.44,0.122-0.639l-1.373-1.227c-0.168,0.112-0.348,0.198-0.541,0.227
		c-0.382,0.057-0.786-0.051-1.097-0.33l-4.092-3.77c-0.556-0.499-0.605-1.357-0.109-1.916c0.497-0.56,1.35-0.607,1.906-0.109
		l4.092,3.77c0.405,0.364,0.538,0.917,0.389,1.407l1.351,1.207c0.197-0.167,0.428-0.291,0.683-0.36V17.09
		c0-0.25,0.201-0.452,0.45-0.452s0.45,0.202,0.45,0.452v2.203c0.242,0.06,0.462,0.17,0.654,0.317l1.964-1.71
		c-0.183-0.516-0.048-1.116,0.389-1.491l7.737-6.772c0.565-0.485,1.421-0.416,1.903,0.151
		C33.653,10.357,33.586,11.218,33.021,11.703z"/>
	<rect class="st1" width="40" height="47"/>
</g>
</svg>
