<?xml version="1.0" encoding="utf-8"?>
<!-- Generator: Adobe Illustrator 19.2.1, SVG Export Plug-In . SVG Version: 6.00 Build 0)  -->
<svg version="1.1" id="Layer_1" xmlns="http://www.w3.org/2000/svg" xmlns:xlink="http://www.w3.org/1999/xlink" x="0px" y="0px"
	 width="40px" height="47px" viewBox="0 0 40 47" style="enable-background:new 0 0 40 47;" xml:space="preserve">
<style type="text/css">
	.st0{fill:none;}
	.st1{fill:#FFFFFF;}
	.st2{fill-rule:evenodd;clip-rule:evenodd;fill:#FFFFFF;}
</style>
<path class="st0" d="M16.248,20l-1.694,3l10.525,0.008l-1.694-3L16.248,20z M5,23h2.973l1.694-3H5V23z M29.945,20l1.694,3H34v-3
	H29.945z"/>
<rect class="st0" width="40" height="47"/>
<path class="st1" d="M20,2C9.506,2,1,10.506,1,21s8.506,19,19,19c10.493,0,19-8.507,19-19S30.493,2,20,2z M15.479,11.255
	c0.321-0.568,1.048-0.771,1.616-0.45l1.593,0.899c0.568,0.321,0.77,1.048,0.45,1.616l-0.5,0.885L14.98,12.14L15.479,11.255z
	 M5.834,19.918h3.593l-2.241,3.998H5.834V19.918z M6.501,31.432L7.31,25.76l3.629,2.049L6.501,31.432z M7.788,24.878l6.698-11.863
	l3.659,2.066l-6.698,11.863L7.788,24.878z M14.3,23.92l2.245-4.002h6.506l2.263,4.002H14.3z M17.978,8.91
	c-0.321-0.568-0.12-1.296,0.448-1.617l1.592-0.901c0.568-0.321,1.295-0.119,1.617,0.448l7.951,14.052l-3.657,2.069L17.978,8.91z
	 M26.423,23.836l3.657-2.069l1.289,2.278l-3.657,2.069L26.423,23.836z M33.164,31.432c-1.38-2.439-3.299-1.067-4.488-3.168
	c-0.246-0.435-0.337-0.914-0.293-1.376l3.348-1.894c0.419,0.2,0.968,0.853,1.286,1.414C34.729,29.434,33.164,31.432,33.164,31.432z
	 M32.445,23.917l-2.255-3.996l3.643-0.004l-0.004,4H32.445z"/>
</svg>
