<svg id="Layer_1" data-name="Layer 1" xmlns="http://www.w3.org/2000/svg" width="42" height="47" viewBox="0 0 42 47">
  <defs>
    <style>
      .cls-1 {
        fill: none;
      }

      .cls-2 {
        fill: #fff;
      }
    </style>
  </defs>
  <title>heart-artboard</title>
  <rect class="cls-1" x="-1.54" y="-2.4" width="47.08" height="52.8"/>
  <path class="cls-2" d="M21,2A19,19,0,1,0,40,21,19,19,0,0,0,21,2ZM32,19a1,1,0,0,1-1-1,4.82,4.82,0,0,0-4.94-5.06,5.52,5.52,0,0,0-4.31,1.81c-0.24.25-.8,1-0.8,1a11.74,11.74,0,0,0-.79-1,5.46,5.46,0,0,0-4.29-1.79A4.85,4.85,0,0,0,10.94,18c0,6.69,8.09,11.44,10,12.49a26.43,26.43,0,0,0,7.11-5.58,1,1,0,1,1,1.52,1.3,28.25,28.25,0,0,1-8.18,6.3,1,1,0,0,1-.44.1,1.13,1.13,0,0,1-.46-0.1C20.06,32.29,8.94,26.82,8.94,18a6.8,6.8,0,0,1,6.89-7.06A7.51,7.51,0,0,1,21,12.73a7.8,7.8,0,0,1,5.13-1.78A6.78,6.78,0,0,1,33,18,1,1,0,0,1,32,19Z"/>
</svg>
