<?xml version="1.0" encoding="utf-8"?>
<!-- Generator: Adobe Illustrator 19.2.1, SVG Export Plug-In . SVG Version: 6.00 Build 0)  -->
<svg version="1.1" id="Layer_1" xmlns="http://www.w3.org/2000/svg" xmlns:xlink="http://www.w3.org/1999/xlink" x="0px" y="0px"
	 width="40px" height="47px" viewBox="0 0 40 47" style="enable-background:new 0 0 40 47;" xml:space="preserve">
<style type="text/css">
	.st0{fill:#FFFFFF;}
	.st1{fill:none;}
	.st2{opacity:0.5;fill-rule:evenodd;clip-rule:evenodd;fill:#FFFFFF;}
	.st3{fill-rule:evenodd;clip-rule:evenodd;fill:#FFFFFF;}
</style>
<g>
	<path class="st0" d="M20,4C9.506,4,1,12.507,1,23s8.506,19,19,19c10.493,0,19-8.507,19-19S30.493,4,20,4z M29.506,23.865
		c-0.375,0.402-1.011,0.424-1.413,0.049L21,17.3V31c0,0.55-0.45,1-1,1s-1-0.45-1-1V17.3l-7.093,6.614
		c-0.402,0.375-1.038,0.353-1.413-0.049c-0.375-0.402-0.353-1.038,0.049-1.413l8.776-8.184c0.037-0.034,0.083-0.048,0.123-0.076
		c0.055-0.037,0.104-0.084,0.163-0.109c0.009-0.004,0.019-0.005,0.029-0.009c0.056-0.022,0.114-0.026,0.173-0.038
		c0.059-0.012,0.116-0.032,0.176-0.033C19.989,14.003,19.994,14,20,14s0.011,0.003,0.017,0.004c0.06,0.001,0.117,0.022,0.176,0.033
		c0.058,0.012,0.117,0.016,0.173,0.038c0.009,0.004,0.019,0.005,0.029,0.009c0.06,0.025,0.109,0.072,0.163,0.109
		c0.04,0.028,0.086,0.041,0.123,0.076l8.776,8.184C29.859,22.827,29.881,23.463,29.506,23.865z"/>
	<rect class="st1" width="40" height="47"/>
</g>
</svg>
