<?xml version="1.0" encoding="utf-8"?>
<!-- Generator: Adobe Illustrator 18.0.0, SVG Export Plug-In . SVG Version: 6.00 Build 0)  -->
<!DOCTYPE svg PUBLIC "-//W3C//DTD SVG 1.1//EN" "http://www.w3.org/Graphics/SVG/1.1/DTD/svg11.dtd">
<svg version="1.1" xmlns="http://www.w3.org/2000/svg" xmlns:xlink="http://www.w3.org/1999/xlink" x="0px" y="0px" width="45px"
	 height="45px" viewBox="0 0 45 45" enable-background="new 0 0 45 45" xml:space="preserve">
<g id="Tool_Kit_Financing__x5B__Dark__x5D_">
</g>
<g id="Tool_Kit_Financing__x5B__Light__x5D_">
	<path id="RMB" fill="#888888" d="M13.36,28.64c-0.17-0.32-0.43-1.3-0.78-2.95c-0.19-0.88-0.48-1.51-0.86-1.89
		c-0.38-0.38-0.93-0.57-1.66-0.57H8.51v5.41H7.13V16.52c0.85-0.17,1.81-0.26,2.88-0.26c1.41,0,2.49,0.28,3.24,0.83
		c0.75,0.55,1.12,1.38,1.12,2.47c0,1.58-0.77,2.63-2.32,3.15v0.05c0.91,0.32,1.52,1.16,1.82,2.54c0.41,1.85,0.72,2.96,0.93,3.34
		H13.36z M12.98,19.74c0-1.59-0.97-2.39-2.9-2.39c-0.71,0-1.23,0.04-1.57,0.13v4.68h1.64c0.88,0,1.56-0.22,2.07-0.66
		C12.72,21.06,12.98,20.47,12.98,19.74z M28.34,28.64H27l-0.31-5.51c-0.06-1.18-0.11-2.18-0.15-3.01c-0.03-0.83-0.05-1.5-0.05-2.01
		v-0.31h-0.06c-0.22,0.73-0.45,1.48-0.7,2.25c-0.25,0.77-0.53,1.57-0.83,2.38l-2.24,6.14h-1.02l-2.08-6.02
		c-0.32-0.91-0.59-1.76-0.83-2.55c-0.24-0.79-0.44-1.53-0.59-2.21h-0.06c-0.01,0.87-0.04,1.77-0.08,2.67
		c-0.04,0.91-0.09,1.83-0.16,2.78l-0.33,5.38H16.2l0.84-12.29h1.73l2.19,6.22c0.25,0.72,0.49,1.42,0.69,2.1
		c0.21,0.68,0.4,1.36,0.57,2.02h0.04c0.33-1.25,0.76-2.62,1.31-4.1l2.28-6.24h1.73L28.34,28.64z M37.46,25.16
		c0,0.53-0.1,1.02-0.3,1.47c-0.2,0.44-0.51,0.82-0.92,1.14c-0.41,0.32-0.94,0.56-1.58,0.73c-0.64,0.17-1.4,0.26-2.29,0.26
		c-0.39,0-0.78-0.01-1.17-0.03c-0.39-0.02-0.78-0.05-1.17-0.1v-12.1c0.81-0.17,1.72-0.26,2.73-0.26c1.36,0,2.41,0.26,3.14,0.79
		c0.73,0.53,1.09,1.28,1.09,2.25c0,0.62-0.19,1.17-0.56,1.65c-0.38,0.48-0.88,0.84-1.51,1.07v0.04c0.74,0.18,1.35,0.55,1.82,1.1
		C37.22,23.71,37.46,24.38,37.46,25.16z M35.6,19.43c0-1.4-0.92-2.09-2.77-2.09c-0.63,0-1.1,0.04-1.4,0.13v4.14h1.5
		c0.81,0,1.46-0.2,1.95-0.61C35.36,20.59,35.6,20.07,35.6,19.43z M36,25.16c0-0.78-0.29-1.39-0.87-1.83
		c-0.58-0.44-1.37-0.67-2.37-0.67h-1.33v4.9c0.3,0.06,0.75,0.09,1.33,0.09c1.02,0,1.82-0.22,2.39-0.65
		C35.72,26.58,36,25.96,36,25.16z M22.5,3C33.25,3,42,11.75,42,22.5S33.25,42,22.5,42S3,33.25,3,22.5S11.75,3,22.5,3 M22.5,2
		C11.18,2,2,11.18,2,22.5S11.18,43,22.5,43S43,33.82,43,22.5S33.82,2,22.5,2L22.5,2z"/>
</g>
</svg>
