<?xml version="1.0" encoding="utf-8"?>
<!-- Generator: Adobe Illustrator 19.2.1, SVG Export Plug-In . SVG Version: 6.00 Build 0)  -->
<svg version="1.1" id="Layer_1" xmlns="http://www.w3.org/2000/svg" xmlns:xlink="http://www.w3.org/1999/xlink" x="0px" y="0px"
	 width="40px" height="47px" viewBox="0 0 40 47" style="enable-background:new 0 0 40 47;" xml:space="preserve">
<style type="text/css">
	.st0{fill:#FFFFFF;}
	.st1{fill:none;}
	.st2{opacity:0.5;fill-rule:evenodd;clip-rule:evenodd;fill:#FFFFFF;}
	.st3{fill-rule:evenodd;clip-rule:evenodd;fill:#FFFFFF;}
</style>
<g>
	<path class="st0" d="M23,15h-6c-1.103,0-2,0.897-2,2v8c0,1.103,0.897,2,2,2h6c1.103,0,2-0.897,2-2v-8C25,15.897,24.103,15,23,15z
		 M20,2C9.507,2,1,10.507,1,21s8.507,19,19,19c10.493,0,19-8.507,19-19S30.493,2,20,2z M32,20h-1v7c0,3.3-2.7,6-6,6H15
		c-3.3,0-6-2.7-6-6V15c0-3.3,2.7-6,6-6h10c2.959,0,5.429,2.173,5.909,5H32V20z M25,11H15c-2.206,0-4,1.794-4,4v12
		c0,2.206,1.794,4,4,4h10c2.206,0,4-1.794,4-4V15C29,12.794,27.206,11,25,11z M13,25c0,0.88-0.391,1.667-1,2.217V25v-8v-2.217
		c0.609,0.55,1,1.337,1,2.217V25z M26,25c0,1.65-1.35,3-3,3h-6c-1.65,0-3-1.35-3-3v-8c0-1.65,1.35-3,3-3h6c1.65,0,3,1.35,3,3V25z
		 M28,17v8v2.217c-0.609-0.55-1-1.337-1-2.217v-8c0-0.88,0.391-1.667,1-2.217V17z"/>
	<rect class="st1" width="40" height="47"/>
</g>
</svg>
