<?xml version="1.0" encoding="utf-8"?>
<!-- Generator: Adobe Illustrator 19.2.1, SVG Export Plug-In . SVG Version: 6.00 Build 0)  -->
<svg version="1.1" id="Layer_1" xmlns="http://www.w3.org/2000/svg" xmlns:xlink="http://www.w3.org/1999/xlink" x="0px" y="0px"
	 width="29px" height="47px" viewBox="0 0 29 47" style="enable-background:new 0 0 29 47;" xml:space="preserve">
<style type="text/css">
	.st0{fill:#FFFFFF;}
	.st1{fill:none;}
	.st2{opacity:0.5;fill-rule:evenodd;clip-rule:evenodd;fill:#FFFFFF;}
	.st3{fill-rule:evenodd;clip-rule:evenodd;fill:#FFFFFF;}
</style>
<g>
	<path class="st0" d="M9.495,26.475c0.209,0.1,2.128,0.973,5.136,1.066l0.038,0c0.606,0,1.097-0.461,1.117-1.05
		c0.009-0.284-0.094-0.556-0.291-0.766c-0.205-0.219-0.486-0.345-0.791-0.354c-2.389-0.074-3.987-0.738-4.304-0.88
		c-3.966-1.503-6.711-5.069-6.994-9.083c-0.194-2.762,0.75-5.442,2.659-7.545c1.974-2.175,4.731-3.477,7.762-3.668
		c0.252-0.016,0.502-0.023,0.752-0.023c5.868,0,10.77,4.322,11.159,9.84c0.111,1.574-0.148,3.153-0.741,4.548l-0.433,0.778
		c-0.151,0.248-0.193,0.539-0.119,0.818c0.075,0.285,0.261,0.524,0.523,0.671c0.17,0.096,0.364,0.146,0.56,0.146
		c0.396,0,0.765-0.205,0.969-0.543l0.525-0.951c0.766-1.787,1.085-3.677,0.949-5.616C27.499,7.211,21.616,2,14.575,2
		c-0.296,0-0.594,0.009-0.893,0.028c-3.626,0.228-6.927,1.79-9.295,4.399c-2.308,2.542-3.449,5.784-3.213,9.129
		C1.515,20.405,4.788,24.694,9.495,26.475z M17.896,16.903c0.106,0.277,0.317,0.495,0.595,0.615
		c0.144,0.062,0.297,0.094,0.454,0.094c0.439,0,0.84-0.251,1.02-0.64c0.328-0.707,0.494-1.459,0.494-2.237
		c0-3.065-2.627-5.559-5.855-5.559s-5.855,2.494-5.855,5.559s2.626,5.558,5.855,5.558c0.617,0,1.118-0.487,1.118-1.085
		c0-0.599-0.502-1.086-1.118-1.086c-1.995,0-3.618-1.52-3.618-3.387s1.623-3.387,3.618-3.387s3.618,1.52,3.618,3.387
		c0,0.468-0.1,0.92-0.297,1.346C17.803,16.342,17.793,16.634,17.896,16.903z M21.333,18.356c0.104,0.277,0.314,0.497,0.59,0.619
		c0.146,0.064,0.301,0.096,0.461,0.096c0.437,0,0.836-0.249,1.017-0.634c0.6-1.27,0.88-2.624,0.833-4.023
		c-0.166-4.972-4.4-8.867-9.64-8.867c-0.107,0-0.215,0.002-0.323,0.005C11.658,5.63,9.243,6.676,7.47,8.496
		c-1.728,1.775-2.636,4.083-2.555,6.497c0.117,3.501,2.379,6.677,5.763,8.092c0.142,0.059,0.291,0.089,0.442,0.089
		c0.445,0,0.847-0.256,1.025-0.652c0.118-0.263,0.125-0.555,0.02-0.823c-0.109-0.276-0.323-0.492-0.602-0.609
		c-2.591-1.083-4.323-3.504-4.411-6.168c-0.062-1.831,0.629-3.584,1.945-4.936c1.364-1.4,3.226-2.204,5.243-2.264L14.56,7.72
		c4.044,0,7.311,2.972,7.438,6.765c0.036,1.06-0.177,2.086-0.631,3.048C21.244,17.794,21.232,18.086,21.333,18.356z M20.923,19.825
		c-0.032-0.02-0.801-0.493-2.169-0.938c-0.115-0.038-0.235-0.056-0.355-0.056c-0.479,0-0.905,0.296-1.059,0.737
		c-0.095,0.271-0.076,0.562,0.051,0.82c0.132,0.267,0.364,0.465,0.652,0.559c0.655,0.213,1.273,0.477,1.769,0.761
		c3.774,1.886,6.106,5.701,5.943,9.719c-0.232,5.683-5.132,10.135-11.156,10.135c-0.152,0-0.304-0.003-0.458-0.009
		c-3.036-0.11-5.83-1.34-7.869-3.462c-1.971-2.053-2.994-4.706-2.882-7.472c0.065-1.603,0.5-3.127,1.293-4.531
		c0.142-0.253,0.176-0.544,0.094-0.82c-0.084-0.283-0.276-0.516-0.544-0.657c-0.163-0.085-0.347-0.13-0.531-0.13
		c-0.409,0-0.785,0.216-0.982,0.564c-0.96,1.702-1.487,3.549-1.566,5.49c-0.136,3.349,1.1,6.558,3.481,9.038
		c2.444,2.545,5.79,4.02,9.422,4.152c0.174,0.006,0.348,0.009,0.521,0.009c7.241,0,13.132-5.367,13.411-12.219
		C28.188,26.652,25.407,22.061,20.923,19.825z M11.316,28.803c-0.097-0.279-0.302-0.503-0.575-0.631
		c-0.153-0.071-0.316-0.107-0.484-0.107c-0.425,0-0.82,0.24-1.006,0.611c-0.349,0.698-0.539,1.445-0.564,2.221
		c-0.046,1.469,0.508,2.87,1.56,3.947c1.075,1.1,2.538,1.731,4.118,1.775l0.176,0.002c3.132,0,5.757-2.419,5.85-5.392
		c0.047-1.471-0.509-2.875-1.566-3.953c-0.213-0.217-0.5-0.337-0.809-0.337c-0.286,0-0.558,0.104-0.766,0.294
		c-0.219,0.2-0.344,0.47-0.352,0.761c-0.008,0.291,0.101,0.567,0.307,0.778c0.641,0.654,0.979,1.503,0.951,2.389
		c-0.057,1.812-1.694,3.285-3.723,3.285h-0.001c-0.986-0.027-1.895-0.418-2.561-1.1c-0.638-0.653-0.974-1.5-0.947-2.385
		c0.015-0.468,0.129-0.918,0.339-1.338C11.392,29.368,11.411,29.075,11.316,28.803z M7.692,27.504
		c-0.111-0.275-0.327-0.489-0.607-0.604c-0.138-0.056-0.284-0.086-0.433-0.086c-0.449,0-0.853,0.259-1.029,0.659
		c-0.567,1.289-0.812,2.653-0.727,4.056c0.292,4.858,4.543,8.665,9.676,8.665c0.184,0,0.369-0.005,0.555-0.015
		c2.619-0.141,5.014-1.247,6.743-3.115c1.687-1.823,2.536-4.16,2.391-6.582c-0.211-3.509-2.536-6.628-5.906-7.937
		c-0.059-0.029-1.468-0.722-3.767-0.813c-0.598,0-1.086,0.457-1.112,1.04c-0.012,0.284,0.088,0.556,0.283,0.768
		c0.203,0.221,0.483,0.349,0.788,0.362c1.547,0.062,2.582,0.482,2.882,0.617c2.633,1.026,4.438,3.417,4.598,6.09
		c0.111,1.838-0.536,3.615-1.821,5.003c-1.331,1.438-3.179,2.29-5.203,2.399c-0.15,0.008-0.299,0.013-0.447,0.013
		c-3.941,0-7.203-2.908-7.426-6.621c-0.065-1.064,0.121-2.099,0.551-3.076C7.795,28.063,7.799,27.771,7.692,27.504z"/>
	<rect class="st1" width="29" height="47"/>
</g>
</svg>
