<?xml version="1.0" encoding="utf-8"?>
<!-- Generator: Adobe Illustrator 19.2.1, SVG Export Plug-In . SVG Version: 6.00 Build 0)  -->
<svg version="1.1" id="Layer_1" xmlns="http://www.w3.org/2000/svg" xmlns:xlink="http://www.w3.org/1999/xlink" x="0px" y="0px"
	 width="40px" height="47px" viewBox="0 0 40 47" style="enable-background:new 0 0 40 47;" xml:space="preserve">
<style type="text/css">
	.st0{fill:#FFFFFF;}
	.st1{fill:none;}
	.st2{opacity:0.5;fill-rule:evenodd;clip-rule:evenodd;fill:#FFFFFF;}
	.st3{fill-rule:evenodd;clip-rule:evenodd;fill:#FFFFFF;}
</style>
<g>
	<path class="st0" d="M20,2C9.507,2,1,10.507,1,21s8.507,19,19,19s19-8.507,19-19S30.493,2,20,2z M14,9c1.657,0,3,1.343,3,3
		s-1.343,3-3,3s-3-1.343-3-3S12.343,9,14,9z M29.034,32.009L11,32c-1.638,0-3-1.347-3-3.009V15c0-1.304,0.924-2.38,2.02-2.802
		C10.126,14.31,11.862,16,14,16c2.202,0,3.993-1.789,3.999-3.989l10.965,0.017c1.638,0,3.023,1.29,3.023,2.952L32,29
		C32,30.662,30.672,32.009,29.034,32.009z M10.004,27.996c0,1.592,0.431,2,2,2L28,30c1.374,0,2-0.624,2-2V18H10L10.004,27.996z"/>
	<rect class="st1" width="40" height="47"/>
</g>
</svg>
