<?xml version="1.0" encoding="utf-8"?>
<!-- Generator: Adobe Illustrator 19.2.1, SVG Export Plug-In . SVG Version: 6.00 Build 0)  -->
<svg version="1.1" id="Layer_1" xmlns="http://www.w3.org/2000/svg" xmlns:xlink="http://www.w3.org/1999/xlink" x="0px" y="0px"
	 width="44px" height="47px" viewBox="0 0 44 47" style="enable-background:new 0 0 44 47;" xml:space="preserve">
<style type="text/css">
	.st0{fill:none;}
	.st1{fill:#FFFFFF;}
	.st2{fill-rule:evenodd;clip-rule:evenodd;fill:#FFFFFF;}
</style>
<path class="st1" d="M22,2.01c-10.493,0-19,8.507-19,19s8.507,19,19,19s19-8.507,19-19S32.493,2.01,22,2.01z M31.332,14.895
	c0,0.533-0.436,1.105-0.969,1.105h-5.739c0,0,1.97,1.828,3.167,3.01c0.902,0.891,1.646,1.708,2.229,3.167
	c0.396,0.991,0.375,1.702,0.375,2.812c0,4.113-3.466,7.883-7.599,7.883c-4.02,0-7.621-3.287-7.797-7.246C14.996,25.597,15,10,15,10
	c0-0.541,0.407-1.042,1-1.042c0.593,0,1,0.443,1,0.984c0,0,0.031,15.306,0.031,15.47c0,3.015,2.73,5.459,5.765,5.459
	c3.035,0,5.623-2.97,5.623-5.985c0-0.164,0.103-2.383-1.343-3.829C25.959,19.94,23,17.281,23,17.281v5.646
	c0,0.533-0.467,0.969-1,0.969c-0.533,0-1-0.436-1-0.969v-8.031v0C21,14.362,21.265,14,22,14h8.363c0.533,0,0.969,0.467,0.969,1
	V14.895z"/>
</svg>
