<?xml version="1.0" encoding="utf-8"?>
<!-- Generator: Adobe Illustrator 19.2.1, SVG Export Plug-In . SVG Version: 6.00 Build 0)  -->
<svg version="1.1" id="Layer_1" xmlns="http://www.w3.org/2000/svg" xmlns:xlink="http://www.w3.org/1999/xlink" x="0px" y="0px"
	 width="36px" height="47px" viewBox="0 0 36 47" style="enable-background:new 0 0 36 47;" xml:space="preserve">
<style type="text/css">
	.st0{fill:#FFFFFF;}
	.st1{fill:none;}
	.st2{opacity:0.5;fill-rule:evenodd;clip-rule:evenodd;fill:#FFFFFF;}
	.st3{fill-rule:evenodd;clip-rule:evenodd;fill:#FFFFFF;}
</style>
<g>
	<path class="st3" d="M27.602,4H8.398C4.312,4,1,7.312,1,11.398v19.203C1,34.688,4.312,38,8.398,38h19.203
		C31.688,38,35,34.688,35,30.602V11.398C35,7.312,31.688,4,27.602,4z M26.111,18.589c-1.431,1.376-2.917,2.454-3.325,2.743
		c-0.143,0.123-0.329,0.198-0.533,0.198c-0.203,0-0.39-0.074-0.533-0.198c-0.408-0.288-1.894-1.367-3.325-2.743
		c-2.075-1.995-3.127-3.744-3.127-5.198c0-2.401,1.749-4.354,3.898-4.354c1.249,0,2.37,0.655,3.086,1.689
		c0.716-1.034,1.837-1.689,3.086-1.689c2.15,0,3.899,1.953,3.899,4.354C29.239,14.846,28.187,16.595,26.111,18.589z"/>
	<rect class="st1" width="36" height="47"/>
</g>
</svg>
